<mxfile host="app.diagrams.net" modified="2023-09-07T00:00:05.784Z" agent="Mozilla/5.0 (X11; Linux x86_64; rv:109.0) Gecko/20100101 Firefox/115.0" etag="2G73DBTznjsQg5OudEFK" version="21.7.2" type="device">
  <diagram name="Page-1" id="eheVkf2clcfVZ4fpYeqF">
    <mxGraphModel dx="1908" dy="1204" grid="1" gridSize="10" guides="1" tooltips="1" connect="1" arrows="1" fold="1" page="1" pageScale="1" pageWidth="850" pageHeight="1100" math="0" shadow="0">
      <root>
        <mxCell id="0" />
        <mxCell id="1" parent="0" />
        <mxCell id="m1fqyfCDWd-JdiW6XqTL-1" value="&lt;div&gt;FIM&lt;/div&gt;" style="strokeWidth=2;html=1;shape=mxgraph.flowchart.terminator;whiteSpace=wrap;" vertex="1" parent="1">
          <mxGeometry x="610" y="670" width="100" height="60" as="geometry" />
        </mxCell>
        <mxCell id="m1fqyfCDWd-JdiW6XqTL-4" value="" style="edgeStyle=orthogonalEdgeStyle;rounded=0;orthogonalLoop=1;jettySize=auto;html=1;" edge="1" parent="1" source="m1fqyfCDWd-JdiW6XqTL-2" target="m1fqyfCDWd-JdiW6XqTL-3">
          <mxGeometry relative="1" as="geometry" />
        </mxCell>
        <mxCell id="m1fqyfCDWd-JdiW6XqTL-2" value="INICIO" style="strokeWidth=2;html=1;shape=mxgraph.flowchart.terminator;whiteSpace=wrap;" vertex="1" parent="1">
          <mxGeometry x="150" y="360" width="100" height="60" as="geometry" />
        </mxCell>
        <mxCell id="m1fqyfCDWd-JdiW6XqTL-7" value="" style="edgeStyle=orthogonalEdgeStyle;rounded=0;orthogonalLoop=1;jettySize=auto;html=1;" edge="1" parent="1" source="m1fqyfCDWd-JdiW6XqTL-3" target="m1fqyfCDWd-JdiW6XqTL-5">
          <mxGeometry relative="1" as="geometry" />
        </mxCell>
        <mxCell id="m1fqyfCDWd-JdiW6XqTL-3" value="DECLARE peso, resultado como float" style="rounded=0;whiteSpace=wrap;html=1;" vertex="1" parent="1">
          <mxGeometry x="140" y="460" width="120" height="60" as="geometry" />
        </mxCell>
        <mxCell id="m1fqyfCDWd-JdiW6XqTL-8" value="" style="edgeStyle=orthogonalEdgeStyle;rounded=0;orthogonalLoop=1;jettySize=auto;html=1;" edge="1" parent="1" source="m1fqyfCDWd-JdiW6XqTL-5" target="m1fqyfCDWd-JdiW6XqTL-6">
          <mxGeometry relative="1" as="geometry" />
        </mxCell>
        <mxCell id="m1fqyfCDWd-JdiW6XqTL-5" value="&quot;Escreva o seu peso em kg: &quot;" style="strokeWidth=2;html=1;shape=mxgraph.flowchart.document2;whiteSpace=wrap;size=0.15714285714285714;" vertex="1" parent="1">
          <mxGeometry x="150" y="560" width="100" height="70" as="geometry" />
        </mxCell>
        <mxCell id="m1fqyfCDWd-JdiW6XqTL-11" value="" style="edgeStyle=orthogonalEdgeStyle;rounded=0;orthogonalLoop=1;jettySize=auto;html=1;" edge="1" parent="1" source="m1fqyfCDWd-JdiW6XqTL-6" target="m1fqyfCDWd-JdiW6XqTL-9">
          <mxGeometry relative="1" as="geometry" />
        </mxCell>
        <mxCell id="m1fqyfCDWd-JdiW6XqTL-6" value="LEIA peso" style="shape=parallelogram;perimeter=parallelogramPerimeter;whiteSpace=wrap;html=1;fixedSize=1;" vertex="1" parent="1">
          <mxGeometry x="140" y="670" width="120" height="60" as="geometry" />
        </mxCell>
        <mxCell id="m1fqyfCDWd-JdiW6XqTL-12" value="" style="edgeStyle=orthogonalEdgeStyle;rounded=0;orthogonalLoop=1;jettySize=auto;html=1;" edge="1" parent="1" source="m1fqyfCDWd-JdiW6XqTL-9" target="m1fqyfCDWd-JdiW6XqTL-10">
          <mxGeometry relative="1" as="geometry" />
        </mxCell>
        <mxCell id="m1fqyfCDWd-JdiW6XqTL-9" value="resultado = peso * 1000" style="rounded=0;whiteSpace=wrap;html=1;" vertex="1" parent="1">
          <mxGeometry x="290" y="670" width="120" height="60" as="geometry" />
        </mxCell>
        <mxCell id="m1fqyfCDWd-JdiW6XqTL-13" value="" style="edgeStyle=orthogonalEdgeStyle;rounded=0;orthogonalLoop=1;jettySize=auto;html=1;" edge="1" parent="1" source="m1fqyfCDWd-JdiW6XqTL-10" target="m1fqyfCDWd-JdiW6XqTL-1">
          <mxGeometry relative="1" as="geometry" />
        </mxCell>
        <mxCell id="m1fqyfCDWd-JdiW6XqTL-10" value="&quot;Seu peso em gramas Ã© {resultado}&quot;" style="strokeWidth=2;html=1;shape=mxgraph.flowchart.document2;whiteSpace=wrap;size=0.1125;" vertex="1" parent="1">
          <mxGeometry x="440" y="660" width="133.33" height="80" as="geometry" />
        </mxCell>
      </root>
    </mxGraphModel>
  </diagram>
</mxfile>
